<?xml version="1.0" encoding="utf-8"?>
<!-- Generator: Adobe Illustrator 25.4.1, SVG Export Plug-In . SVG Version: 6.00 Build 0)  -->
<svg version="1.1" id="Layer_1" xmlns="http://www.w3.org/2000/svg" xmlns:xlink="http://www.w3.org/1999/xlink" x="0px" y="0px"
	 viewBox="0 0 824.2 340.4" style="enable-background:new 0 0 824.2 340.4;" xml:space="preserve">
<style type="text/css">
	.st0{fill:#329E5E;}
	.st1{fill:#C91444;}
</style>
<g>
	<g>
		<g>
			<path class="st0" d="M602.6,228.2v-2.7c0.6,0,1.2-0.1,1.6-0.2c0.4-0.1,0.8-0.5,1-0.9c0.2-0.5,0.3-1.3,0.3-2.4v-15.7
				c0-0.7,0-1.5,0.1-2.1c0-0.7,0.1-1.2,0.1-1.6c-0.4,0-1,0-1.6,0.1c-0.7,0-1.1,0-1.4,0.1v-3.2c1.9,0,3.9,0,5.8,0c1.9,0,3.9,0,5.8,0
				c2.4,0,4.5,0.2,6.3,0.8c1.8,0.6,3.1,1.5,4.1,2.8c1,1.3,1.4,3,1.4,5.2c0,1.2-0.3,2.2-0.8,3.3c-0.5,1-1.3,2-2.4,2.8
				c-1.1,0.8-2.4,1.4-4,1.9c0.5,0.2,1,0.6,1.5,1.1c0.5,0.5,0.9,1,1.3,1.6l1.9,2.9c0.6,0.9,1.1,1.7,1.6,2.2c0.5,0.5,0.9,1,1.4,1.2
				c0.5,0.3,1,0.4,1.6,0.4v2.7h-6.8c-0.5-0.4-1-0.9-1.5-1.5c-0.5-0.7-1-1.4-1.5-2.3l-3-4.9c-0.4-0.5-0.7-1-0.9-1.4
				c-0.3-0.4-0.5-0.7-0.8-1c-0.4,0-0.8,0-1.1,0c-0.3,0-0.6,0-1,0v4.4c0,0.8,0,1.5,0,2.2c0,0.7-0.1,1.2-0.1,1.6c0.3,0,0.7,0,1.2-0.1
				c0.5,0,0.9,0,1.4,0c0.5,0,0.8,0,1,0v3.2H602.6z M613.5,214.1c1.5,0,2.8-0.2,3.7-0.7c0.9-0.5,1.6-1.1,2-2.1
				c0.4-0.9,0.6-2.1,0.6-3.5c0-1.3-0.2-2.3-0.6-3.1c-0.4-0.8-0.9-1.3-1.5-1.7c-0.6-0.4-1.2-0.6-1.9-0.7c-0.6-0.1-1.2-0.1-1.6-0.1
				c-0.6,0-1.1,0.1-1.5,0.2c-0.4,0.1-0.7,0.4-0.9,0.9c-0.2,0.5-0.3,1.2-0.3,2.1v8.4c0.3,0,0.6,0.1,0.9,0.1
				C612.8,214,613.1,214.1,613.5,214.1z"/>
		</g>
		<g>
			<path class="st0" d="M640,229.3c-2,0-4.2-0.9-5.7-1.7c-1.5-0.9-2.7-2.1-3.6-3.8c-0.8-1.6-1.3-3.6-1.3-5.8c0-1.9,0.4-3.7,1.3-5.4
				c0.8-1.7,2-3,3.6-4c1.5-1,3.3-1.5,5.4-1.5c1.2,0,2.3,0.2,3.4,0.5c1.1,0.3,2.1,0.9,3,1.6c0.9,0.8,1.6,1.8,2.1,3.1
				c0.5,1.3,0.8,3,0.8,4.9l-13.5,0.2c0,1.5,0.2,2.8,0.6,4c0.4,1.2,1,2.1,1.8,2.8c0.8,0.7,2.4,1.4,3.8,1.4c0.5,0,1.2-0.1,1.9-0.3
				c0.7-0.2,1.4-0.5,2.1-1c0.7-0.5,1.4-1.1,2-1.8l1.8,1.7c-1,1.4-2,2.5-3.2,3.2c-1.1,0.7-2.2,1.2-3.3,1.5
				C642,229.1,640.9,229.3,640,229.3z M635.7,214.5h7.6c0-1.2-0.2-2.1-0.5-2.7c-0.3-0.7-0.7-1.2-1.2-1.5c-0.5-0.3-1.1-0.5-1.7-0.5
				c-1.2,0-2.2,0.4-2.8,1.3C636.4,212,636,213.2,635.7,214.5z"/>
		</g>
	</g>
	<g>
		<path d="M679.6,54.9"/>
	</g>
	<g>
		<path class="st0" d="M647.7,222.5c0,0,2.7-3.2,2.1-8.1c-0.8-6.4-5.7-8.8-10.3-8.7c-3.3,0-7.3,1.3-10.2,7.2l0,0c0,0,2.1-9.7,13-9.3
			c3.8,0.1,7.7,3.1,9.1,6.9c1.2,3.2,1.9,8.3-1.9,13.7L647.7,222.5z"/>
	</g>
	<g>
		<g>
			<path class="st0" d="M659.3,199.4h7.4c1.6,0,3.1,1.1,4.6,3.4c4.6,5.7,7.1,8.9,7.4,9.6l0.2,1.2v0.7c0,1-0.8,2.4-2.3,4
				c-4.2,5.3-6.7,8.3-7.4,9c-0.9,0.6-1.7,0.9-2.4,0.9h-7.6c-1.5,0-2.8-0.9-3.7-2.7c-0.2-0.5-0.3-1-0.3-1.3v-20.7
				c0-1.5,0.9-2.8,2.7-3.7C658.5,199.5,658.9,199.4,659.3,199.4z M660.6,204.7v18.2h5.4l7.3-9l-7.3-9.3H660.6z"/>
		</g>
	</g>
	<g>
		<rect x="681.7" y="199.6" class="st0" width="20.6" height="6"/>
	</g>
	<g>
		<rect x="681.7" y="222.2" class="st0" width="20.6" height="6"/>
	</g>
	<g>
		<rect x="681.7" y="211.6" class="st0" width="20.6" height="4.5"/>
	</g>
	<g>
		<path class="st0" d="M705.4,228.2v-2.7c0.6,0,1.2-0.1,1.6-0.2s0.8-0.5,1-0.9s0.3-1.3,0.3-2.4v-15.7c0-0.7,0-1.5,0.1-2.1
			c0-0.7,0.1-1.2,0.1-1.6c-0.4,0-1,0-1.6,0.1s-1.1,0-1.4,0.1v-3.2H726l0.2,8h-2.7c0-1.5-0.3-2.6-0.8-3.4c-0.5-0.8-1.2-1.3-1.9-1.5
			c-0.8-0.3-1.5-0.4-2.3-0.3l-1.5,0c-0.6,0-1.1,0.1-1.5,0.2c-0.4,0.2-0.7,0.5-0.9,1c-0.2,0.5-0.3,1.3-0.3,2.4v7.1h4.2l-0.2-3.5h3.2
			v10h-2.7c0-1.2-0.2-2-0.5-2.5s-0.8-0.8-1.5-1s-1.3-0.2-2-0.1h-0.5v5.8c0,0.7,0,1.5,0,2.1s-0.1,1.2-0.1,1.6c0.3,0,0.7,0,1.2-0.1
			s1,0,1.5,0c0.5,0,0.8,0,1,0v3.2H705.4z"/>
	</g>
	<g>
		<g>
			<path class="st0" d="M766.7,228.2l-19.9-25.7h-3.4v-3.1h8.3l19,24.6v4.2H766.7z M752.1,211.6V225h2.8v3.2h-11.4V225h2.7V204
				L752.1,211.6z M765,214.2v-11.7h-2.8v-3.1h11.4v3.1h-2.8v19.2L765,214.2z"/>
		</g>
	</g>
	<g>
		<path class="st0" d="M789.9,218.3c0-1.2-0.2-2-0.5-2.5s-0.8-0.8-1.5-1c-0.6-0.1-1.3-0.2-2-0.2l-1.1,0v6.7c0,0.7,0,1.4,0,2.1
			s-0.1,1.2-0.1,1.5h5.5c0.8,0,1.6-0.2,2.4-0.6c0.8-0.4,1.4-1,1.9-1.8c0.5-0.9,0.7-2,0.7-3.5h2.7l-0.2,9h-21.7v-2.7
			c0.6,0,1.2-0.1,1.6-0.2s0.8-0.5,1-0.9s0.3-1.3,0.3-2.4v-15.7c0-0.7,0-1.5,0.1-2.1c0-0.7,0.1-1.2,0.1-1.6c-0.4,0-1,0-1.6,0.1
			s-1.1,0-1.4,0.1v-3.2h20.5l0.2,8H794c0-1.5-0.3-2.6-0.8-3.4c-0.5-0.8-1.2-1.3-1.9-1.5c-0.8-0.3-1.5-0.4-2.3-0.3l-1.5,0
			c-0.6,0-1.1,0.1-1.5,0.2c-0.4,0.2-0.7,0.5-0.9,1c-0.2,0.5-0.3,1.3-0.3,2.4v6.2h4.8l-0.2-3.6h3.2v10H789.9z"/>
	</g>
	<g>
		<path class="st0" d="M807.9,228.8c-1.6,0-3.1-0.4-4.3-1.3s-2.2-2.1-2.9-3.6c-0.7-1.6-1-3.4-1-5.5c0-2.2,0.4-4.2,1.3-5.9
			c0.8-1.7,2-3.1,3.6-4.1c1.5-1,3.3-1.5,5.3-1.5c0.7,0,1.4,0.1,2,0.2c0.6,0.2,1.1,0.3,1.7,0.5V205c0-0.4,0-0.9,0-1.6
			c0-0.7,0.1-1.4,0.1-2c-0.4,0-1,0.1-1.6,0.1s-1.1,0-1.4,0v-3.1c1.3,0,2.4-0.1,3.2-0.2c0.9-0.1,1.5-0.3,2.1-0.5
			c0.5-0.2,0.9-0.4,1-0.5h2.2v24.4c0,0.4,0,0.9,0,1.6s-0.1,1.4-0.1,2c0.5-0.1,1-0.1,1.5-0.1s0.9,0,1.2,0v3.1H814
			c0-0.3-0.1-0.6-0.1-0.9c0-0.3-0.1-0.6-0.1-0.9c-0.9,0.9-1.8,1.6-2.8,2C810,228.7,809,228.8,807.9,228.8z M810.1,225.1
			c0.7,0,1.4-0.2,2-0.6c0.6-0.4,1.1-0.8,1.4-1.4c0-0.4,0-0.8,0-1.2s0-0.8,0-1.2v-9.9c-0.3-0.2-0.7-0.4-1.2-0.6
			c-0.5-0.1-1.1-0.2-1.7-0.2c-1.3,0-2.2,0.4-3,1.2c-0.7,0.8-1.2,1.7-1.5,2.9c-0.3,1.2-0.4,2.4-0.4,3.7c0,1.2,0.1,2.3,0.4,3.4
			c0.3,1.1,0.8,2,1.4,2.8S809,225.1,810.1,225.1z"/>
	</g>
	<g>
		<g>
			<path class="st0" d="M734.8,205.8c1.8,0,3.2-0.6,4.2-1.9c1-1.2,1.6-2.8,1.6-4.5c0-1.8-0.6-3.3-1.7-4.5c-1.1-1.2-2.5-1.9-4.2-1.9
				c-1.6,0-3,0.6-4.2,1.9c-1.2,1.2-1.8,2.8-1.8,4.5c0,1.8,0.6,3.3,1.7,4.5C731.6,205.1,733.1,205.8,734.8,205.8z M734.1,195.5
				l-0.4,2.9l4.5-1l-4.9,6.5l2.4-5.1l-4.4,0.9L734.1,195.5z"/>
		</g>
		<g>
			<path class="st0" d="M739.6,225.1c-0.5,0-1,0-1.5,0.1c0.1-0.6,0.1-1.3,0.1-2c0-0.7,0-1.2,0-1.6v-14.3h-2.2
				c-0.2,0.2-0.5,0.3-1,0.5c-0.5,0.2-1.2,0.4-2.1,0.5c-0.9,0.1-1.9,0.2-3.2,0.2v3.1c0.3,0,0.7,0,1.3-0.1c0.6,0,1.1,0,1.5-0.1
				c-0.1,0.6-0.1,1.2-0.1,1.9c0,0.6,0,1.2,0,1.7v6.8c0,0.7,0,1.4-0.1,1.9c-0.1,0.6-0.3,1-0.6,1.3c-0.3,0.3-0.9,0.5-1.6,0.5v2.7h10.8
				v-3.1C740.5,225.1,740.1,225.1,739.6,225.1z"/>
		</g>
	</g>
	<g>
		<g>
			<path class="st1" d="M148.8,50c-1.9,19.1-2.3,40.5-4.2,60.5c-3.8,38.5-12.9,70.7-47.3,67.3c-15.7-1.5-26.2-9.3-32.6-20.2
				c-8.3,11.9-18.4,19.7-29.3,18.6c-25.2-2.5-37-62.8-32.5-108.9C5.7,37.7,15.3,14,32.7,15.7c7.4,0.7,14.5,4.2,16.3,6.8
				c-8.7,10.7-18.9,49.9-22.3,84.7c-3.1,31.3-0.5,59.2,13.2,60.5c8.5,0.8,16-5.2,22.3-14.5c-5.8-12.9-7.3-29.1-5.7-44.8
				c2.9-29.6,16-57.1,28.1-55.9c5.6,0.5,7.2,12.1,5.7,28c-1.7,17.6-7.3,40.4-15.9,59.4c3.9,17.4,12.6,31.5,28.7,33.1
				c15.4,1.5,21.6-11,23.4-28.7c3.3-33.7-9.5-86.5-8-102.2c2-20.7,19-33.7,42.1-37C153.7,15.1,150.6,31.5,148.8,50z M73,132.1
				c6-15.7,9.8-33.4,11.1-46.4c1-10.5,0.4-17.9-2.3-18.2c-3.7-0.4-7.7,12.3-9.4,29.2C71.2,107.6,71.1,120.3,73,132.1z"/>
		</g>
	</g>
	<g>
		<g>
			<path class="st1" d="M321.4,111.2c3.9,0.3,7.7,1.3,10.9,3c-0.2,2.6-0.6,5-0.8,7.4c-2.3,29.4,4.8,44.2,16.4,45.1
				c8.9,0.7,20.1-6.7,32.2-21.7c3.5-4.6,2.6-9.7,5.4-14.5l4.5,1.6c-2.5,4.7-1.6,9.5-5.1,14.1c-15.9,20.6-36.2,33.3-52.6,32
				c-16.9-1.3-29.5-17.1-29.3-53.9c-12.1,9.5-23.4,45.9-29.8,52.9c0,0-3.5,1.2-7.3,0.9c-15.4-1.2-23.3-39.8-22.4-52.4
				c0.9-12,9.3-25.7,26.4-24.4c3.1,0.2,6.9,1,10.7,2.5c-6.3,19.1-8.9,37.1-9.9,49.2c-0.7,9.4-0.3,12.8,0.7,12.9
				c1.4,0.1,4.2-7.4,5.9-11.2C287.6,131.1,296.6,109.3,321.4,111.2z"/>
		</g>
	</g>
	<g>
		<g>
			<path class="st0" d="M396.8,103c1.3-1.8,2.6-3.4,4.2-5c1.5-1.5,3.2-2.9,5.1-4c1.9-1.1,3.9-2,6.2-2.7c2.3-0.7,4.7-1,7.3-1
				c3,0,6,0.5,9,1.5s5.6,2.7,7.9,5c2.3,2.3,4.2,5.2,5.6,8.8s2.1,7.9,2.1,13.1c0,4.2-0.4,8.6-1.2,13c-0.8,4.5-2,8.8-3.6,13
				c-1.6,4.2-3.7,8.2-6.1,12c-2.4,3.8-5.4,7.1-8.8,9.9c-3.4,2.8-7.2,5.1-11.5,6.7c-4.3,1.7-9.1,2.5-14.4,2.5
				c-3.9,0-7.4-0.6-10.5-1.8c-3.1-1.2-5.7-2.9-7.8-5c-2.1-2.1-3.8-4.7-4.9-7.6c-1.1-3-1.7-6.2-1.7-9.7c0-1.5,0.1-2.9,0.3-4.4
				c0.2-1.4,0.4-3,0.8-4.6l19.4-92.7h13.2L396.4,103H396.8z M388.3,142.4c-0.3,1.4-0.5,2.7-0.8,4.1c-0.2,1.3-0.3,2.7-0.3,4.2
				c0,4.3,1.1,7.6,3.4,10.1c2.3,2.5,5.5,3.7,9.7,3.7c3.4,0,6.6-0.7,9.4-2.1c2.9-1.4,5.4-3.2,7.7-5.5c2.3-2.3,4.2-4.9,5.9-7.9
				c1.7-3,3.1-6.2,4.2-9.6c1.1-3.4,2-6.7,2.5-10c0.6-3.3,0.9-6.4,0.9-9.4c0-2.3-0.3-4.6-0.8-6.8c-0.5-2.2-1.4-4.2-2.6-5.9
				c-1.2-1.7-2.7-3.1-4.7-4.2c-1.9-1.1-4.2-1.6-7-1.6c-2.3,0-4.7,0.5-7.2,1.5c-2.5,1-4.8,2.5-7.1,4.5c-2.3,2.1-4.3,4.6-6.1,7.8
				c-1.8,3.1-3.1,6.9-4.1,11.2L388.3,142.4z"/>
		</g>
		<g>
			<path class="st0" d="M507.4,103.7c-1.8-0.2-3.5-0.3-5.2-0.3c-4,0-7.6,0.7-10.8,2c-3.2,1.3-6,3.2-8.3,5.5c-2.3,2.3-4.3,5-5.8,8.1
				c-1.5,3.1-2.6,6.4-3.4,9.9l-9.3,44.8h-13.2l16.9-81.2h10.9v11h0.3c1.4-1.8,2.9-3.5,4.5-5.1c1.6-1.6,3.5-3,5.6-4.2
				s4.3-2.1,6.7-2.8c2.4-0.7,5.1-1,7.9-1c1,0,2,0,3,0.1c1,0.1,1.9,0.2,2.8,0.4L507.4,103.7z"/>
		</g>
		<g>
			<path class="st0" d="M553.9,160.3c-1.9,2.9-4,5.3-6.2,7.2c-2.2,2-4.5,3.6-6.8,4.8c-2.3,1.2-4.5,2.1-6.8,2.6
				c-2.3,0.5-4.4,0.8-6.5,0.8c-3.5,0-6.7-0.6-9.4-1.9c-2.7-1.3-5-3.1-6.9-5.5c-1.9-2.4-3.3-5.3-4.3-8.6c-1-3.4-1.5-7.1-1.5-11.2
				c0-4.6,0.4-9.2,1.2-13.9c0.8-4.6,2-9.1,3.5-13.5c1.6-4.3,3.5-8.4,5.9-12.1c2.3-3.7,5-7,8-9.8c3-2.8,6.4-5,10.1-6.6
				c3.7-1.6,7.7-2.4,12.1-2.4c4.3,0,8.1,0.9,11.5,2.7s5.8,4.3,7.6,7.6h0.3l3.9-8.1h10.8l-13.1,62.5c-0.4,2.2-0.6,3.8-0.6,4.9
				c0,1.4,0.4,2.4,1.2,3c0.8,0.6,2.1,0.9,4.1,0.9c1.6,0,3.5-0.2,5.6-0.5l-2.3,10.9c-2.4,0.5-5,0.8-7.9,0.8c-4.7,0-8.1-1.1-10.3-3.3
				c-2.1-2.2-3.1-6-3-11.3H553.9z M563.5,110.7c-0.7-1-1.6-2.1-2.6-3.2c-1-1.1-2.1-2.1-3.5-2.9c-1.3-0.9-2.8-1.6-4.4-2.1
				c-1.6-0.5-3.5-0.8-5.5-0.8c-3.4,0-6.4,0.7-9.1,2.2c-2.7,1.5-5.2,3.4-7.3,5.9c-2.1,2.4-3.9,5.2-5.5,8.3c-1.5,3.1-2.8,6.4-3.8,9.7
				c-1,3.3-1.7,6.6-2.2,9.9c-0.5,3.2-0.7,6.2-0.7,8.9c0,3.6,0.3,6.6,1,8.9c0.7,2.3,1.6,4.2,2.7,5.5c1.1,1.3,2.4,2.3,3.9,2.8
				c1.5,0.5,3,0.8,4.6,0.8c2.8,0,5.6-0.7,8.5-2.2s5.6-3.6,8.1-6.3c2.5-2.8,4.8-6.2,6.8-10.2c2-4,3.5-8.6,4.6-13.7L563.5,110.7z"/>
		</g>
		<g>
			<path class="st0" d="M600.9,173.6h-13.2l16.9-81.2h10.9v11h0.3c3.5-4.1,7.6-7.3,12.3-9.7c4.7-2.3,10-3.5,15.9-3.5
				c3.2,0,6.2,0.4,8.9,1.3c2.7,0.9,5,2.2,6.9,3.8c1.9,1.7,3.4,3.7,4.5,6.2c1.1,2.5,1.6,5.2,1.6,8.4c0,2.2-0.2,4.6-0.6,7.1
				c-0.4,2.5-0.8,5.1-1.4,7.7l-10.2,48.9h-13.2l10.4-50.4c0.9-4.2,1.4-7.6,1.4-10.3c0-2.1-0.3-3.8-0.9-5.3c-0.6-1.5-1.4-2.6-2.5-3.5
				c-1.1-0.9-2.4-1.5-3.9-2c-1.5-0.4-3.1-0.6-4.9-0.6c-3.8,0-7.4,0.7-10.7,2.1c-3.3,1.4-6.2,3.3-8.8,5.8c-2.6,2.5-4.7,5.3-6.5,8.6
				c-1.8,3.3-3,6.9-3.8,10.8L600.9,173.6z"/>
		</g>
		<g>
			<path class="st0" d="M699.5,175.8c-3.6,0-6.8-0.6-9.6-1.9c-2.8-1.3-5.2-3.1-7.1-5.5c-1.9-2.4-3.4-5.3-4.4-8.6
				c-1-3.4-1.5-7.1-1.5-11.2c0-4.8,0.4-9.6,1.2-14.3c0.8-4.8,2-9.3,3.6-13.6c1.6-4.3,3.6-8.3,5.9-12c2.3-3.7,5-6.9,8-9.6
				c3-2.7,6.4-4.8,10.2-6.4c3.8-1.5,7.7-2.3,11.8-2.3c4.7,0,8.7,0.9,12,2.8c3.3,1.9,5.9,4.4,7.7,7.6h0.3l10.6-50.8h13.2l-21.9,105
				c-0.2,0.9-0.3,1.8-0.4,2.7c-0.1,0.9-0.2,1.6-0.2,2.2c0,1.4,0.4,2.4,1.1,3c0.7,0.6,2.1,0.9,4.1,0.9c0.7,0,1.6,0,2.6-0.1
				c1.1-0.1,2.1-0.2,3-0.4l-2.3,10.9c-0.9,0.2-2,0.4-3.5,0.6c-1.5,0.1-3,0.2-4.4,0.2c-4.7,0-8.1-1.1-10.3-3.3c-2.1-2.2-3.1-6-3-11.3
				H726c-1.9,2.9-4,5.3-6.3,7.2c-2.3,2-4.5,3.6-6.8,4.8c-2.3,1.2-4.6,2.1-6.9,2.6C703.7,175.5,701.5,175.8,699.5,175.8z
				 M735.5,110.7c-0.7-1-1.6-2.1-2.7-3.2c-1.1-1.1-2.3-2.1-3.6-2.9c-1.4-0.9-2.9-1.6-4.7-2.1c-1.7-0.5-3.7-0.8-5.8-0.8
				c-3.2,0-6.3,0.7-9,2.2c-2.8,1.5-5.2,3.4-7.3,5.8c-2.1,2.4-3.9,5.1-5.5,8.2c-1.6,3.1-2.9,6.3-3.9,9.6c-1,3.3-1.8,6.6-2.3,9.9
				c-0.5,3.3-0.7,6.3-0.7,9.1c0,3.6,0.4,6.6,1.1,8.9c0.7,2.3,1.7,4.2,2.9,5.5c1.2,1.3,2.6,2.3,4.1,2.8c1.5,0.5,3.1,0.8,4.7,0.8
				c2.8,0,5.6-0.7,8.5-2.2c2.9-1.5,5.6-3.6,8.2-6.3c2.6-2.8,4.9-6.2,6.9-10.2c2-4,3.5-8.6,4.6-13.7L735.5,110.7z"/>
		</g>
		<g>
			<path class="st0" d="M782,114.3c0,1.8,0.4,3.3,1.1,4.6c0.7,1.3,1.7,2.4,2.9,3.3s2.6,1.8,4.2,2.4c1.6,0.7,3.3,1.3,5,2
				c2.4,0.9,4.9,1.8,7.4,2.8c2.5,1,4.8,2.3,6.8,3.8c2.1,1.6,3.7,3.5,5,5.9c1.3,2.4,2,5.5,2,9.2c0,4.5-0.8,8.5-2.5,11.9
				c-1.7,3.4-4,6.3-7,8.6s-6.6,4-10.7,5.2c-4.1,1.2-8.6,1.8-13.5,1.8c-4.4,0-8.8-0.5-13.3-1.4c-4.5-0.9-8-2.2-10.6-3.7l2.5-11.1
				c3,1.3,6.3,2.5,9.9,3.5c3.6,1,7.4,1.5,11.5,1.5c4.4,0,8-0.5,10.7-1.6c2.7-1.1,4.8-2.3,6.3-3.8c1.5-1.5,2.5-3.1,3-4.7
				c0.5-1.7,0.7-3.1,0.7-4.3c0-2.2-0.5-4.1-1.5-5.6c-1-1.5-2.4-2.7-4-3.8c-1.7-1-3.5-1.9-5.6-2.7c-2.1-0.8-4.3-1.6-6.5-2.4
				c-2.1-0.8-4.2-1.7-6.2-2.7c-2.1-1-3.9-2.2-5.4-3.7c-1.6-1.5-2.8-3.2-3.8-5.4c-1-2.1-1.5-4.7-1.5-7.8c0-4.4,0.8-8.2,2.4-11.4
				c1.6-3.2,3.7-5.9,6.5-8c2.7-2.1,5.8-3.7,9.4-4.8c3.5-1.1,7.3-1.6,11.2-1.6c2.3,0,4.6,0.2,6.9,0.5c2.3,0.3,4.5,0.7,6.6,1.2
				s4.1,1.1,5.9,1.8c1.9,0.7,3.5,1.4,4.9,2.1l-2.3,10.9c-3.4-1.5-6.9-2.7-10.6-3.7c-3.6-1-7.2-1.5-10.8-1.5c-2.7,0-5.2,0.3-7.3,1
				c-2.1,0.7-3.9,1.5-5.3,2.6c-1.4,1.1-2.5,2.4-3.2,4C782.4,110.7,782,112.4,782,114.3z"/>
		</g>
	</g>
	<g>
		<path class="st1" d="M239.3,218.1c1.5,24.7,2.5,48.7,0.9,70.2c-2.4,33.9-29.8,50.8-52.8,49.2c-18.6-1.3-35.1-16.6-33.2-42.6
			c2.9-40.6,29.3-55.2,67.2-69.8c-5.5-23.8-11.5-57.8-13.8-80.4c-7.5,21.6-21.7,28.3-33.1,27.5c-14.6-1.1-26.2-26.8-24.7-47
			c1-13.6,8-24.8,24.1-23.6c2.2,0.2,4.7,0.6,7.4,1.3c-1.2,5.9-2.1,11.8-2.5,17c-1.5,20.3,1.1,39.6,10.5,40.3
			c5.7,0.4,13.6-12.5,17.3-33.6c-0.1-2.7,0.1-5.2,0.3-7.9c0.8-11.1,14.1-16.1,23.7-15.5c3.5,0.2,6.4,1.2,8.3,2.8
			c-0.6,5.2-1.3,10.6-1.7,16c-2,27.7-0.4,57.7,1.4,87.4 M223.1,232.2c-19.9,6.8-33,22.4-35.7,40.2c-3.8,25.5,6.9,36.5,20.3,38.2
			c7.9,1,21.9-6.4,23.1-23.7C232.3,267.4,228.1,255.2,223.1,232.2z"/>
	</g>
	<g>
		<path class="st1" d="M221.9,225.3c-0.4-1.1,19.8-3,32.8-21.2l4,4.3c0,0-12.5,18.7-33.8,22.5L221.9,225.3z"/>
	</g>
	<g>
		<path class="st0" d="M290.2,228.6c-1-2.4-2-4.8-3.1-7.2c-1-2.4-2-4.8-3.1-7.2c-0.3-0.6-0.6-1.4-0.9-2.3c-0.4-0.9-0.7-2-1.1-3.1
			c-0.4-1.1-0.7-2.3-1-3.4c0.1,1.1,0.1,2.2,0.1,3.2c0,1,0,2,0,2.9c0,0.7,0,1.5,0,2.4c0,0.9,0,1.8-0.1,2.7c0,0.9,0,1.9-0.1,2.8
			c0,0.9,0,1.9,0,2.7c0,0.7-0.1,1.4-0.1,2s-0.1,1.2-0.1,1.6c0.5,0,1-0.1,1.7-0.1c0.6,0,1.1,0,1.5,0v2.7h-8.9V226
			c0.7,0,1.3-0.1,1.7-0.3c0.4-0.2,0.7-0.6,0.9-1.1s0.3-1.3,0.3-2.2l0.5-16.7c0-0.7,0-1.3,0.1-2s0-1.1,0.1-1.6c-0.4,0-1,0-1.6,0.1
			c-0.6,0-1.1,0-1.5,0.1v-2.7h8.2l6.5,16c0.3,0.7,0.6,1.5,0.9,2.3c0.3,0.8,0.6,1.6,0.9,2.4c0.3,0.8,0.6,1.5,0.8,2.1h0
			c0.4-0.9,0.7-1.8,1-2.7c0.3-0.9,0.7-1.8,1-2.6c1.1-2.9,2.2-5.8,3.3-8.7c1.1-2.9,2.3-5.8,3.4-8.8h8.3v2.3c-0.6,0-1.2,0.1-1.6,0.3
			c-0.5,0.2-0.8,0.6-1,1.1c-0.2,0.5-0.3,1.4-0.3,2.5l0.8,16.7c0.1,0.7,0.1,1.3,0,1.9s-0.1,1.1-0.1,1.4c0.5-0.1,1-0.1,1.6-0.1
			s1.1,0,1.5,0v2.7H300V226c0.7,0,1.2-0.2,1.7-0.4c0.4-0.2,0.8-0.6,0.9-1.2c0.2-0.6,0.3-1.4,0.2-2.5l-0.5-10.3c0-0.4,0-0.9-0.1-1.6
			c-0.1-0.7-0.1-1.4-0.1-2.2c0-0.8-0.1-1.5-0.1-2.3c-0.1,0.2-0.2,0.4-0.3,0.6c-0.1,0.2-0.2,0.4-0.2,0.6l-8.4,21.9H290.2z"/>
		<path class="st0" d="M313.8,226c0.8,0,1.4-0.2,1.7-0.5s0.5-0.8,0.6-1.5s0.1-1.3,0.1-2.1v-7.7c0-0.5,0-1,0-1.5s0.1-1.1,0.1-1.7
			c-0.5,0-1,0.1-1.5,0.1c-0.5,0-1,0.1-1.4,0.1v-2.7c1.2,0,2.2-0.1,3.1-0.2c0.8-0.1,1.4-0.3,1.9-0.5c0.5-0.2,0.8-0.4,1-0.5h1.8v15
			c0,0.4,0,1,0,1.6c0,0.6-0.1,1.2-0.1,1.8c0.4-0.1,0.9-0.1,1.4-0.1s0.9,0,1.2,0v2.6h-10V226z M318.5,203.8c-0.8,0-1.5-0.3-2-0.9
			s-0.8-1.3-0.8-2.2s0.3-1.6,0.8-2.2s1.2-0.9,2-0.9c0.8,0,1.5,0.3,2,0.9s0.8,1.3,0.8,2.2s-0.3,1.6-0.8,2.2
			C320,203.5,319.3,203.8,318.5,203.8z"/>
		<path class="st0" d="M335.7,228.9c-1.3,0-2.4-0.2-3.5-0.5c-1.1-0.3-2-0.7-2.6-1.2l0.1,1.3H327l-0.2-7.1h2.2c0.1,0.9,0.4,1.8,1,2.5
			s1.3,1.3,2.2,1.8s1.9,0.6,3.1,0.6c0.5,0,1.1-0.1,1.6-0.2s0.9-0.4,1.3-0.8c0.3-0.4,0.5-0.8,0.5-1.4c0-0.6-0.2-1.1-0.6-1.5
			c-0.4-0.4-1-0.7-1.7-1.1c-0.7-0.3-1.5-0.7-2.5-1c-0.8-0.3-1.7-0.7-2.5-1c-0.8-0.4-1.6-0.8-2.3-1.3s-1.3-1.1-1.7-1.9
			c-0.4-0.7-0.7-1.6-0.7-2.7c0-0.7,0.1-1.5,0.4-2.2c0.3-0.7,0.7-1.4,1.3-2.1c0.6-0.6,1.4-1.2,2.3-1.5c0.9-0.4,2.1-0.6,3.5-0.6
			c0.7,0,1.6,0.1,2.5,0.3c0.9,0.2,1.7,0.6,2.5,1.2l0-1.3h2.7v7.2h-2.2c-0.1-1-0.4-1.8-0.9-2.6c-0.5-0.8-1.1-1.3-1.8-1.8
			s-1.7-0.7-2.7-0.7c-0.9,0-1.6,0.2-2.2,0.6s-0.9,1-0.9,1.9c0,0.7,0.2,1.2,0.7,1.7s1.1,0.8,1.9,1.1c0.8,0.3,1.7,0.6,2.6,1
			c1.3,0.4,2.5,1,3.5,1.6c1.1,0.6,1.9,1.3,2.5,2.2s0.9,1.9,0.9,3.2c0,1.4-0.4,2.6-1.1,3.5s-1.6,1.6-2.7,2.1S336.9,228.9,335.7,228.9
			z"/>
		<path class="st0" d="M355.9,228.9c-2,0-3.7-0.4-5.2-1.3c-1.5-0.9-2.7-2.1-3.6-3.8c-0.8-1.6-1.3-3.5-1.3-5.8c0-1.9,0.4-3.7,1.3-5.4
			c0.8-1.7,2-3,3.6-4c1.5-1,3.3-1.5,5.4-1.5c1.1,0,2.3,0.2,3.3,0.5c1.1,0.3,2,0.9,2.9,1.6c0.8,0.8,1.5,1.8,2,3
			c0.5,1.3,0.7,2.8,0.7,4.6l-13.8,0.2c0,1.7,0.2,3.2,0.6,4.5c0.4,1.3,1,2.3,1.9,3.1c0.9,0.8,2.1,1.1,3.6,1.1c0.7,0,1.4-0.1,2.1-0.3
			c0.8-0.2,1.5-0.6,2.2-1.1c0.7-0.5,1.4-1.1,2-1.8l1.6,1.4c-0.9,1.3-1.9,2.3-3,3c-1.1,0.7-2.2,1.2-3.3,1.5S356.9,228.9,355.9,228.9z
			 M351.5,214.6h8.5c0-1.1-0.2-2-0.5-2.8s-0.7-1.3-1.2-1.7c-0.5-0.4-1.2-0.6-2-0.6c-1.3,0-2.4,0.4-3.2,1.3
			C352.3,211.7,351.7,213,351.5,214.6z"/>
		<path class="st0" d="M376.5,217.2v-3.9h14.9v3.8L376.5,217.2z"/>
		<path class="st0" d="M416.1,228.9c-2,0-3.7-0.4-5.2-1.3c-1.5-0.9-2.7-2.1-3.6-3.8c-0.8-1.6-1.3-3.5-1.3-5.8c0-1.9,0.4-3.7,1.3-5.4
			c0.8-1.7,2-3,3.6-4c1.5-1,3.3-1.5,5.4-1.5c1.1,0,2.3,0.2,3.3,0.5c1.1,0.3,2,0.9,2.9,1.6c0.8,0.8,1.5,1.8,2,3
			c0.5,1.3,0.7,2.8,0.7,4.6l-13.8,0.2c0,1.7,0.2,3.2,0.6,4.5c0.4,1.3,1,2.3,1.9,3.1c0.9,0.8,2.1,1.1,3.6,1.1c0.7,0,1.4-0.1,2.1-0.3
			c0.8-0.2,1.5-0.6,2.2-1.1c0.7-0.5,1.4-1.1,2-1.8l1.6,1.4c-0.9,1.3-1.9,2.3-3,3c-1.1,0.7-2.2,1.2-3.3,1.5S417,228.9,416.1,228.9z
			 M411.6,214.6h8.5c0-1.1-0.2-2-0.5-2.8s-0.7-1.3-1.2-1.7c-0.5-0.4-1.2-0.6-2-0.6c-1.3,0-2.4,0.4-3.2,1.3
			C412.4,211.7,411.9,213,411.6,214.6z"/>
		<path class="st0" d="M428.4,228.2V226c0.8,0,1.4-0.2,1.7-0.5s0.5-0.8,0.6-1.5s0.1-1.3,0.1-2.1v-7.7c0-0.5,0-1,0-1.6
			s0.1-1.1,0.1-1.7c-0.4,0-0.9,0.1-1.5,0.1c-0.6,0-1,0.1-1.4,0.1v-2.7c1.2,0,2.2-0.1,3-0.2s1.4-0.3,1.8-0.5c0.4-0.2,0.8-0.4,0.9-0.5
			h1.7c0.1,0.3,0.1,0.5,0.1,0.7s0,0.4,0,0.6s0.1,0.5,0.1,0.9c0.5-0.5,1.2-0.9,1.9-1.2c0.7-0.4,1.5-0.7,2.2-0.9s1.4-0.3,2-0.3
			c2.5,0,4.2,0.7,5.3,2.2s1.6,3.8,1.6,6.9v6.2c0,0.4,0,1,0,1.6c0,0.6-0.1,1.2-0.1,1.8c0.5-0.1,0.9-0.1,1.4-0.1s0.9,0,1.2,0v2.6h-10
			V226c0.8,0,1.4-0.2,1.7-0.5c0.3-0.3,0.6-0.8,0.6-1.5s0.1-1.3,0.1-2.1l0-5.8c0-2-0.3-3.4-0.9-4.4c-0.6-1-1.6-1.5-2.9-1.5
			c-0.8,0-1.6,0.2-2.3,0.6c-0.8,0.4-1.4,0.8-1.9,1.4c0,0.3,0,0.7,0,1s0,0.7,0,1.1l0,8.1c0,0.4,0,1,0,1.6c0,0.6-0.1,1.2-0.1,1.8
			c0.4-0.1,0.9-0.1,1.4-0.1s0.9,0,1.2,0v2.6H428.4z"/>
		<path class="st0" d="M462.3,217.2v-3.9h14.9v3.8L462.3,217.2z"/>
		<path class="st0" d="M489.4,226c0.8,0,1.4-0.2,1.8-0.4c0.4-0.2,0.7-0.6,0.9-1.2s0.2-1.4,0.2-2.4v-16.4c0-0.7,0-1.3,0.1-2
			s0.1-1.1,0.1-1.5c-0.5,0-1,0-1.6,0.1c-0.6,0-1.1,0-1.4,0.1v-2.7c1.8,0,3.6,0,5.4,0s3.6,0,5.4,0c2.5,0,4.6,0.3,6.4,0.9
			c1.8,0.6,3.2,1.6,4.1,2.9c1,1.3,1.4,3,1.4,5c0,1.1-0.2,2.2-0.7,3.3c-0.5,1.1-1.2,2.1-2.1,3c-1,0.9-2.2,1.7-3.8,2.2
			c-1.6,0.6-3.5,0.9-5.7,0.9c-0.4,0-0.9,0-1.3,0c-0.4,0-0.8,0-1.2,0v4.4c0,0.8,0,1.5,0,2.1s-0.1,1.1-0.1,1.5c0.4,0,0.8,0,1.2-0.1
			c0.4,0,0.9,0,1.3,0s0.8,0,1,0v2.7h-11.4V226z M497.5,215.1c0.4,0,0.7,0.1,1,0.1s0.7,0,1.1,0c1.5,0,2.8-0.3,3.9-0.8
			c1.1-0.5,1.9-1.3,2.4-2.4c0.5-1,0.8-2.3,0.8-3.8c0-1.3-0.2-2.4-0.6-3.3c-0.4-0.8-0.9-1.5-1.5-1.9s-1.3-0.8-2.1-0.9
			c-0.8-0.2-1.5-0.2-2.3-0.2c-0.7,0-1.3,0.1-1.7,0.3c-0.4,0.2-0.7,0.6-0.8,1.2c-0.2,0.6-0.2,1.3-0.2,2.3V215.1z"/>
		<path class="st0" d="M514,226c0.8,0,1.4-0.2,1.7-0.5s0.5-0.8,0.6-1.5c0.1-0.6,0.1-1.3,0.1-2.1v-17.7c0-0.5,0-1,0-1.5
			c0-0.6,0.1-1.1,0.1-1.7c-0.5,0-1,0.1-1.5,0.1s-1,0.1-1.4,0.1v-2.7c1.3,0,2.3-0.1,3.1-0.2c0.8-0.1,1.4-0.3,1.9-0.5s0.8-0.4,1-0.5
			h1.8l0,25.1c0,0.4,0,1,0,1.6c0,0.6-0.1,1.2-0.2,1.8c0.5-0.1,0.9-0.1,1.4-0.1s0.9,0,1.2,0v2.6h-10V226z"/>
		<path class="st0" d="M538.6,228.2c-0.1-0.4-0.1-0.8-0.1-1c0-0.3,0-0.6-0.1-1c-0.9,0.9-1.9,1.6-3,2c-1.1,0.4-2.1,0.7-3.3,0.7
			c-1.9,0-3.3-0.5-4.3-1.5c-1-1-1.5-2.3-1.5-3.7c0-1.3,0.4-2.4,1.1-3.3c0.7-0.9,1.6-1.7,2.8-2.3s2.4-1,3.8-1.4
			c1.4-0.3,2.8-0.5,4.1-0.5v-2.3c0-0.8-0.1-1.5-0.3-2.2s-0.5-1.2-1-1.6c-0.5-0.4-1.1-0.6-2-0.6c-0.6,0-1.2,0.2-1.8,0.4
			c-0.6,0.2-1.1,0.6-1.5,1.1c0.2,0.2,0.4,0.5,0.4,0.8s0.1,0.5,0.1,0.8c0,0.5-0.2,1-0.6,1.5c-0.4,0.5-1,0.8-1.8,0.8
			c-0.7,0-1.3-0.3-1.7-0.8c-0.4-0.5-0.6-1.1-0.6-1.8c0-1,0.4-1.9,1.1-2.7c0.8-0.8,1.8-1.4,3.1-1.8c1.3-0.5,2.7-0.7,4.3-0.7
			c2.4,0,4.2,0.6,5.4,1.8c1.3,1.2,1.9,3.2,1.8,5.9c0,1,0,1.8,0,2.6s0,1.6,0,2.3c0,0.8,0,1.6,0,2.6c0,0.4,0,0.9,0,1.5
			c0,0.6-0.1,1.2-0.1,1.8c0.5-0.1,1-0.1,1.5-0.1s0.9,0,1.3-0.1v2.7H538.6z M538.1,218.6c-0.8,0.1-1.6,0.2-2.4,0.4
			c-0.8,0.2-1.5,0.5-2.1,0.8c-0.6,0.4-1.1,0.8-1.5,1.3s-0.5,1.1-0.5,1.8c0,0.8,0.3,1.5,0.8,1.9c0.5,0.4,1.1,0.6,1.8,0.6
			c0.8,0,1.5-0.2,2.2-0.5c0.6-0.3,1.2-0.8,1.8-1.3c0-0.3,0-0.6,0-0.9s0-0.6,0-0.9c0-0.4,0-0.9,0-1.4S538.1,219.2,538.1,218.6z"/>
		<path class="st0" d="M558,228.9c-1.8,0-3.5-0.4-5.1-1.2c-1.5-0.8-2.8-2-3.7-3.6c-0.9-1.6-1.4-3.5-1.4-5.7c0-1.5,0.3-2.9,0.8-4.3
			c0.5-1.4,1.3-2.6,2.2-3.6c0.9-1.1,2.1-1.9,3.4-2.5c1.3-0.6,2.8-0.9,4.3-0.9c1.7,0,3.1,0.3,4.2,0.8c1.1,0.5,2,1.2,2.6,2
			c0.6,0.8,0.9,1.7,0.9,2.6c0,0.7-0.2,1.4-0.6,1.9c-0.4,0.5-1,0.8-1.8,0.9c-0.9,0-1.6-0.2-1.9-0.8c-0.4-0.6-0.6-1.1-0.6-1.6
			c0-0.3,0-0.6,0.1-0.9s0.2-0.6,0.4-0.9c-0.2-0.5-0.5-0.9-0.9-1.1c-0.4-0.2-0.9-0.4-1.4-0.5c-0.5-0.1-0.8-0.1-1.1-0.1
			c-1.5,0.1-2.7,0.7-3.7,2.1c-1,1.3-1.5,3.2-1.5,5.7c0,1.5,0.2,2.9,0.6,4.2s1.1,2.3,1.9,3.1c0.9,0.8,2,1.2,3.4,1.2
			c1.2,0,2.4-0.3,3.5-0.9c1.1-0.6,2-1.4,2.7-2.4l1.6,1.5c-0.9,1.3-1.9,2.3-2.9,3c-1,0.7-2.1,1.2-3.1,1.5S558.9,228.9,558,228.9z"/>
		<path class="st0" d="M579.3,228.9c-2,0-3.7-0.4-5.2-1.3c-1.5-0.9-2.7-2.1-3.6-3.8c-0.8-1.6-1.3-3.5-1.3-5.8c0-1.9,0.4-3.7,1.3-5.4
			c0.8-1.7,2-3,3.6-4c1.5-1,3.3-1.5,5.4-1.5c1.1,0,2.3,0.2,3.3,0.5c1.1,0.3,2,0.9,2.9,1.6c0.8,0.8,1.5,1.8,2,3
			c0.5,1.3,0.7,2.8,0.7,4.6l-13.8,0.2c0,1.7,0.2,3.2,0.6,4.5c0.4,1.3,1,2.3,1.9,3.1c0.9,0.8,2.1,1.1,3.6,1.1c0.7,0,1.4-0.1,2.1-0.3
			c0.8-0.2,1.5-0.6,2.2-1.1c0.7-0.5,1.4-1.1,2-1.8l1.6,1.4c-0.9,1.3-1.9,2.3-3,3c-1.1,0.7-2.2,1.2-3.3,1.5S580.2,228.9,579.3,228.9z
			 M574.8,214.6h8.5c0-1.1-0.2-2-0.5-2.8s-0.7-1.3-1.2-1.7c-0.5-0.4-1.2-0.6-2-0.6c-1.3,0-2.4,0.4-3.2,1.3
			C575.6,211.7,575.1,213,574.8,214.6z"/>
	</g>
</g>
</svg>
